<?xml version="1.0" encoding="UTF-8"?>
<svg width="460" height="460" version="1.1" viewBox="0 0 460 460" xmlns="http://www.w3.org/2000/svg"><g transform="translate(0 -175.29)"><path d="m412.25 605.53c-4.7-1.2653-7.964-1.5516-12.75-3.2412 0 0-1.4077-0.53565-2.4054-1-4.9499-2.3039-11.364-6.1502-13.232-13.811-0.49484-2.0292-1.296-18.974-1.7804-37.656-0.59896-23.101-1.2327-34.084-1.9813-34.333-0.60537-0.20179-1.1007-1.6312-1.1007-3.1766 0-3.7971-2.4609-4.52-6.6254-1.9462-3.8818 2.3991-5.3746 4.7038-5.3746 8.2977 0 1.3787-0.45 2.7848-1 3.1248-1.1947 0.73834-1.2695 20.158-0.10088 26.194 0.51318 2.6508 0.43098 4.5755-0.22335 5.2298-0.71381 0.71381-0.68517 1.7404 0.0922 3.3056 0.62017 1.2486 1.3546 4.2952 1.632 6.7702 0.27744 2.475 0.9974 8.253 1.5999 12.84 0.80181 6.1045 0.79712 8.6996-0.0175 9.6811-1.5978 1.9253-9.6379 3.4625-23.982 4.5853-6.875 0.53813-14.776 1.2219-17.558 1.5195-8.5558 0.91528-9.943-3.7812-2.1329-7.2216 5.2871-2.329 8.6883-6.1078 8.6899-9.6544 6.7e-4 -1.5125 0.35736-2.75 0.79264-2.75 1.4125 0 2.8514-17.307 2.0802-25.02-0.41139-4.1141-0.7758-16.368-0.80981-27.23-0.0364-11.634-0.44861-19.75-1.003-19.75-0.51766 0-1.1581-5.2875-1.4231-11.75-0.81868-19.96-2.2555-25.25-6.8579-25.25-0.97777 0-1.7778-0.45-1.7778-1s-0.675-1-1.5-1c-1.637 0-2.1991 10.213-1.5799 28.707 0.34035 10.166 0.48558 9.8506-6.9201 15.043-6.386 4.4774-10.271 8.283-11.995 11.75-2.2761 4.5777-4.6075 6.2965-7.7496 5.7134-3.8376-0.71224-4.223-1.6644-4.2403-10.477-9e-3 -4.4182-0.54987-8.6195-1.2559-9.75-0.98739-1.5811-0.98739-2.3918 0-3.9729 1.869-2.9928 1.7158-25.617-0.17846-26.344-1.57-0.60245-5.581 2.4145-5.581 4.1978 0 0.62298-0.3375 1.1356-0.75 1.139-1.006 8e-3 -4.25 5.7902-4.25 7.5747 0 0.78043-0.40273 1.419-0.89496 1.419-2.1455 0-4.2821 24.102-3.0241 34.114 0.57958 4.6124 1.2849 11.311 1.5673 14.886 0.28247 3.575 0.92716 6.9275 1.4327 7.45s0.91909 2.1834 0.91909 3.691 0.41538 2.9977 0.92306 3.3115c0.50769 0.31377 1.2184 1.9153 1.5795 3.559 0.36101 1.6437 0.98664 2.9885 1.3903 2.9885 0.40364 0 1.3519 1.575 2.1072 3.5s1.7393 3.5 2.1866 3.5c0.44734 0 0.81335 0.5627 0.81335 1.2504 0 1.8905 7.071 9.2239 10.7 11.097 1.7602 0.90865 4.1227 1.6521 5.25 1.6521s2.0497 0.42754 2.0497 0.9501c0 0.52255 2.5875 1.085 5.75 1.25 5.506 0.28717 5.7639 0.42171 6.0781 3.1707 0.72143 6.3128-0.1935 7.289-7.5624 8.069-7.9872 0.84549-6.7468 0.85297-25.987-0.15676l-15.222-0.79883-5.0762-5.4068c-3.3324-3.5495-5.4745-6.896-6.2357-9.7421-0.63774-2.3844-1.5162-4.3353-1.9521-4.3353-0.43593 0-0.7926-0.56407-0.7926-1.2535s-1.575-4.5001-3.5-8.4682c-1.9431-4.0054-3.5-8.7595-3.5-10.688 0-1.91-0.45-3.7509-1-4.0908s-1-1.4915-1-2.559-0.40077-1.941-0.89059-1.941c-1.6059 0-2.35-7.2047-2.7887-27-0.41617-18.78-0.34697-19.675 1.8736-24.234 1.2681-2.604 2.6432-4.7414 3.0557-4.75 0.4125-9e-3 0.75-1.0697 0.75-2.3581 0-2.6929 6.8121-16.657 8.1257-16.657 0.48086 0 0.8743-0.5627 0.8743-1.2504 0-1.7235 6.9464-8.9922 10-10.464 1.4526-0.70011 8.575-1.3706 17-1.6004 16.128-0.43981 19.904-1.2932 24.971-5.6433 3.7365-3.2079 7.8339-4.5559 10.895-3.5844 1.4478 0.4595 2.0769 1.9326 2.5944 6.0745 0.55347 4.4298 1.038 5.4679 2.5522 5.4679 1.028 0 2.1471-0.45 2.4871-1 0.34898-0.56467 5.222-1 11.194-1 5.8166 0 13.402-0.52068 16.855-1.1571 5.6469-1.0405 6.4612-0.97548 8.0819 0.64518 1.5469 1.5469 1.7733 3.3666 1.5977 12.845-0.11252 6.0735-0.66 11.498-1.2166 12.055-1.3408 1.3408-1.2985 4.612 0.0595 4.612 0.58936 0 0.98955 1.0125 0.8893 2.25-0.10024 1.2375-0.13244 4.1663-0.0716 6.5085 0.10678 4.1082 0.18974 4.214 2.35 3 1.2316-0.69216 2.9719-2.046 3.8673-3.0085s2.1377-1.75 2.7607-1.75c0.62298 0 1.1327-0.36515 1.1327-0.81144s0.94651-1.8274 2.1034-3.0691c1.602-1.7195 1.9242-2.8968 1.3519-4.9386-0.41328-1.4745-0.93551-8.1934-1.1605-14.931l-0.4091-12.25h3.4742c4.7864 0 11.887-3.23 15.568-7.0818 1.6897-1.7682 3.0723-3.5981 3.0723-4.0665 0-1.3235 3.7846-1.0022 4.691 0.39831 0.44496 0.6875 1.0744 8.45 1.3987 17.25 0.55561 15.075 1.7931 21.468 4.1603 21.492 1.6329 0.017 0.60635 2.3986-2 4.6402-2.1271 1.8294-3.9258 2.3654-7.941 2.3664-2.855 6.7e-4 -5.4691 0.45122-5.809 1.0012s-1.604 1.0143-2.809 1.0318c-2.7372 0.0397-6.1016 2.4947-5.2678 3.8439 0.3429 0.55481 2.7505 1.2923 5.3501 1.6389s5.9956 1.1152 7.5464 1.708c1.5508 0.5928 4.188 1.0389 5.8603 0.99138 2.2097-0.0628 3.1789 0.44266 3.5469 1.8498 0.27849 1.0649 0.88712 1.9362 1.3525 1.9362 0.4654 0 1.0558 10.012 1.312 22.25s0.50421 23.488 0.55107 25c0.0469 1.5125 0.0839 3.7625 0.0824 5-2e-3 1.2375 0.33599 8.325 0.75014 15.75 0.85894 15.399 1.6937 17.539 9.8727 25.303l4.8522 4.6061-2.5 2.4259c-2.8211 2.7374-5.5912 3.4226-11.75 2.9064zm-351.38-12.063c-2.1256-0.32679-1.7986-1.1786-4.0054-1.1786-2.2332 0-4.6775-0.66512-5.5124-1.5-1.3333-1.3333-1.3333-1.6667 0-3 0.825-0.825 2.4752-1.5 3.6671-1.5 3.4139 0 7.5994-2.9876 9.361-6.6818 1.0397-2.1804 1.6147-6.0446 1.6147-10.852 0-4.3107 0.42263-7.4661 1-7.4661 1.2751 0 1.3641-31.7 0.0903-32.167-0.50841-0.1863-1.0598-13.676-1.25-30.583-0.24279-21.579-0.66352-30.25-1.4679-30.25-0.62016-3.2e-4 -1.6674-0.65108-2.3273-1.4462-0.65985-0.79507-3.64-1.9917-6.6224-2.6591-5.0062-1.1204-5.4227-1.4317-5.4227-4.0544 0-2.383 0.41352-2.8409 2.5657-2.8409 1.4112 0 3.3577-0.42383 4.3256-0.94185 2.5017-1.3389 96.954-1.6124 98.282-0.28458 1.548 1.548-0.0292 5.2264-2.241 5.2264-1.0629 0-1.9326 0.45-1.9326 1s-0.5625 1.0072-1.25 1.016c-0.6875 9e-3 -2.8172 1.397-4.7326 3.0848l-3.4826 3.0688 0.31278 54.165c0.18331 31.744 0.69354 54.303 1.2326 54.499 0.50592 0.18334 0.91985 0.77798 0.91985 1.3214 0 1.6121 2.5684 3.6988 5.4397 4.4195 2.0406 0.51216 3.1736 0.1446 4.7414-1.5383 1.7791-1.9097 1.8959-2.5715 0.85646-4.8529-1.7533-3.848-2.4351-26.319-1.0675-35.183 0.63647-4.125 1.395-9.75 1.6857-12.5 0.29069-2.75 0.93705-5.4275 1.4364-5.95 0.49929-0.5225 0.90781-2.6334 0.90781-4.691s0.38935-3.9816 0.86522-4.2757 1.111-2.0495 1.4115-3.9009c0.30044-1.8514 2.109-6.6998 4.019-10.774 5.4503-11.627 7.7043-17.049 7.7043-18.535 0-0.75508 0.45-1.3729 1-1.3729s1-0.66131 1-1.4696 0.9-3.072 2-5.0304 2-4.591 2-5.8501c0-3.0702-4.3105-6.6499-8.0076-6.6499-3.2539 0-4.0393-2.0959-1.6725-4.4628 2.0532-2.0532 9.8202-2.5679 42.429-2.8114l30.249-0.22586 1e-3 2.2145c1e-3 2.0017-3.7982 9.9279-6.2399 13.017-0.53545 0.67751-1.09 8.3275-1.2324 17-0.14238 8.6725-0.60306 18.395-1.0237 21.606-0.46199 3.5262-0.34794 7.2879 0.28802 9.5 1.6179 5.6277 3.4948 36.567 2.2436 36.984-1.3232 0.44108-1.3483 3.8659-0.0342 4.6781 0.55301 0.34178 1 4.8603 1 10.109 0 11.41 1.2619 14.479 6.8765 16.725 4.608 1.8438 5.7351 3.2242 4.171 5.1088-1.2724 1.5331-10.725 2.3454-33.047 2.8399-12.159 0.26931-14.688 0.072-15.663-1.222-0.95039-1.261-0.44765-2.2444 2.75-5.3789l3.913-3.8357v-10.423c0-12.704-0.85497-14.085-8.5264-13.775-2.7355 0.11074-6.4361 0.72916-8.2236 1.3743-3.1208 1.1263-3.25 1.3876-3.25 6.5751 0 2.9712 0.45 5.4022 1 5.4022s1 1.5375 1 3.4167c0 1.8792 0.51429 3.5881 1.1429 3.7976 1.181 0.39365 1.6569 11.319 0.54166 12.435-1.0573 1.0573-13.27 0.64323-15.451-0.52381-2.6053-1.3943-8.8991-1.4752-9.7336-0.125-0.33992 0.55-3.9399 1-8 1s-7.6601 0.45-8 1-4.3899 1-9 1-8.6601-0.45-9-1c-0.85901-1.3899-41.615-0.0489-46.937 0.10408-3.9063-0.23336-12.147-0.0325-17.119-0.17013-2.0392-0.0564-4.1537 0.72228-4.5693 0.24462zm50.343-14.151c0.97995-0.80973 1.7817-2.7222 1.7817-4.25s0.46207-2.7778 1.0268-2.7778c0.66037 0 0.94175-4.461 0.78845-12.5-0.13111-6.875-0.59318-12.5-1.0268-12.5 0.0915-3.8409 0.0384-3.8486 0.21156-7-0.55 0-1-2.3853-1-5.3006 0-2.9153-0.5625-6.5118-1.25-7.9922-1.093-2.3536-1.8325-2.6926-5.8892-2.6994-3.0873-5e-3 -5.429 0.63179-7 1.9041-2.3572 1.909-2.3607 1.9463-2.3028 24.292l0.058 22.38 4.942 5.0541c5.1738 5.2911 4.973 5.2623 9.6603 1.3892zm89.782-37.528c0-0.825 0.3822-1.5 0.84933-1.5s1.2044-4.8375 1.6384-10.75c0.88146-12.008 0.8772-14.227-0.0499-26-0.7056-8.9606-2.2003-10.667-4.5982-5.25-0.73036 1.65-1.6681 3-2.0838 3s-0.75589 1.125-0.75589 2.5-0.45 2.5-1 2.5-1 0.67721-1 1.5049c0 0.8277-1.125 3.8369-2.5 6.6872-1.375 2.8502-2.5 5.773-2.5 6.4951 0 0.72207-0.45 1.3128-1 1.3128s-1 1.3234-1 2.941-0.38715 3.1803-0.86033 3.4727c-1.1916 0.73642-2.2591 9.2624-1.5256 12.185 0.57266 2.2817 0.99687 2.4016 8.4944 2.4016 6.3481 0 7.8916-0.29338 7.8916-1.5zm-89.697-38.852c1.5201-3.2373 1.7434-5.7889 1.4008-16-0.59615-17.768-2.0671-21.648-8.2057-21.648-4.1099 0-6.7907 2.4611-8.296 7.616-2.2186 7.5973-0.88159 31.686 1.8575 33.467 0.79229 0.51519 3.6893 0.81974 6.4377 0.67676 4.726-0.24584 5.0954-0.469 6.8057-4.1115zm-92.053-80.356c-0.76819-0.28246-1.25-2.3547-1.25-5.3763v-4.9167h5.5c3.025 0 5.5017-0.3375 5.5038-0.75 2e-3 -0.4125 1.9554-1.5525 4.3409-2.5332s6.0962-3.3943 8.2462-5.3634l3.9091-3.5802 0.5-11.137c0.35202-7.8405 1.0179-12.144 2.25-14.54 0.56623-3.2658 1.2173-6.2739 2.8216-8.768 0.70322-0.70322 0.86263-4.4677 0.4637-10.95-1.234-20.051-1.5332-46.378-0.52704-46.378 0.437-1.9902 1.1972-4.2836 2.2417-6.1442 1-1.6937 1-2.2076 0-2.5698-0.6875-0.24897-1.25-1.2252-1.25-2.1693 0-0.94417-0.42426-2.1442-0.9428-2.6667s-1.1411-6.575-1.3836-13.45c-0.64686-18.346-4.1917-43.491-6.9078-49-2.1913-4.4448-8.729-12-10.384-12-1.2534 0-11.674-5.297-13.132-6.6756-2.5193-2.3814-0.22583-6.3244 3.6786-6.3244 1.1393 0 2.0714-0.3772 2.0714-0.83822 0-1.6318 19.843-3.142 46.367-3.529 17.759-0.25909 27.093-0.75819 27.534-1.4722 0.44507-0.72013 11.491-1.2525 33.133-1.5968 17.856-0.28407 38.267-0.77877 45.357-1.0993 8.5005-0.38435 13.252-0.22211 13.95 0.47636 0.58256 0.58256 1.8692 1.0592 2.8592 1.0592s1.8 0.45 1.8 1 0.53831 1 1.1962 1c3.2634 0 16.804 11.885 16.804 14.75 0 0.68774 0.50246 1.2504 1.1166 1.2504 0.65246 0 0.91748 1.0415 0.63759 2.5056-0.44112 2.3076 0.0343 3.2301 4.2273 8.2022 0.5602 0.66429 1.0185 1.4839 1.0185 1.8214 0 1.015 2.7797 3.4708 3.9286 3.4708 0.58929 0 1.0714 0.45 1.0714 1s0.49037 1 1.0897 1c1.7398 0 4.8407 4.2917 4.877 6.75 0.0183 1.2375 0.39101 2.25 0.82825 2.25s1.63 2.025 2.6507 4.5c1.0206 2.475 2.2379 4.5 2.705 4.5 0.46711 0 0.8493 0.87344 0.8493 1.941s0.36089 2.164 0.80197 2.4366c0.44109 0.27261 1.4302 2.8027 2.198 5.6224s1.7569 5.3498 2.198 5.6224c0.44108 0.2726 0.80197 1.3914 0.80197 2.4863 0 2.5546 2.7625 7.9254 5.148 10.009 1.2839 1.1212 1.852 2.9849 1.852 6.0757 0 3.489 0.5559 4.9806 2.5567 6.8603 2.5248 2.372 2.55 2.5454 2.022 13.924-0.29408 6.3373-0.60667 13.097-0.69465 15.022-0.088 1.925-0.0643 4.4 0.0526 5.5 0.36949 3.4771-1.9615 11.659-5.0533 17.736-0.48583 0.95504-0.88333 2.6425-0.88333 3.75s-0.45 2.0136-1 2.0136-1 0.9143-1 2.0318c0 1.1175-1.575 5.2784-3.5 9.2465-1.925 3.9681-3.5 7.7788-3.5 8.4682s-0.45 1.2535-1 1.2535-1 0.61901-1 1.3756-1.1531 4.0191-2.5624 7.25-3.0942 7.1119-3.7441 8.6244-1.5219 2.75-1.9376 2.75-0.75589 0.77556-0.75589 1.7235c0 1.9759-13.072 14.847-16.033 15.787-1.0818 0.34332-1.9668 1.0439-1.9668 1.5568 0 0.51293-0.87344 0.93261-1.941 0.93261s-2.2191 0.45-2.559 1-1.4915 1-2.559 1-1.941 0.38657-1.941 0.85904c0 0.47248-3.7125 1.1279-8.25 1.4566-4.5375 0.32863-14.325 1.3366-21.75 2.24-11.078 1.3478-25.969 1.6922-83 1.9197-38.225 0.15246-70.062 0.0704-70.75-0.1824zm123.75-27.293c0-0.55 0.68111-1 1.5136-1s2.5042-0.5625 3.7149-1.25c3.0045-1.7061 9.7715-8.4311 9.7715-9.711 0-0.57147 0.45-1.039 1-1.039s1-0.70502 1-1.5667c0-1.5352 4.7714-8.6094 6.25-9.2666 0.4125-0.18334 0.75-1.1958 0.75-2.25 0-1.0542 0.35328-1.9167 0.78507-1.9167 0.4318 0 2.1193-2.5875 3.75-5.75 1.6307-3.1625 3.3024-5.9 3.7149-6.0833 0.4125-0.18334 0.75-1.1958 0.75-2.25 0-1.0542 0.41425-1.9167 0.92054-1.9167 0.5063 0 1.2159-1.3448 1.5769-2.9885 0.36102-1.6437 1.0718-3.2452 1.5795-3.559 0.50768-0.31377 0.92306-1.5789 0.92306-2.8115s0.48893-2.7299 1.0865-3.3275c0.7017-0.7017 0.87171-3.6944 0.48002-8.45-0.33356-4.0499-0.97343-12.988-1.4219-19.863-0.85262-13.07-2.9147-25-4.3211-25-0.45292 0-0.82349-0.9-0.82349-2s-0.45-2-1-2-1-0.54704-1-1.2156-2.0986-3.3463-4.6636-5.9504c-4.065-4.1271-4.4904-4.9434-3.3143-6.3606 0.85495-1.0301 0.9845-1.8726 0.3536-2.2996-4.2375-2.8675-8.3757-6.6085-8.3757-7.5717 0-0.6383-0.9-1.8092-2-2.6021-1.1-0.79284-2.0039-2.3547-2.0087-3.4708-5e-3 -1.1161-1.5798-3.6867-3.5-5.7125-1.9202-2.0258-3.4913-3.9579-3.4913-4.2936s-1.125-1.8237-2.5-3.3065c-1.375-1.4829-2.5-3.4995-2.5-4.4814 0-1.1863-1.0134-1.9879-3.0208-2.3894-1.6614-0.33229-3.263-0.99604-3.559-1.475-0.74859-1.2113-6.4202-1.0972-6.4202 0.12916 0 0.55-1.0725 1-2.3834 1-1.3794 0-2.6309 0.7372-2.971 1.75-0.32318 0.9625-0.98072 2.425-1.4612 3.25-3.0304 5.2033-3.1723 6.6806-3.0938 32.204 0.0444 14.436 0.46138 26.959 0.92659 27.828s1.1138 13.255 1.4414 27.524c0.69286 30.184 2.4793 58.444 3.6946 58.444 0.46576 0 0.84684 1.168 0.84684 2.5956 0 3.2411 3.2316 7.8856 6.7944 9.765 3.1478 1.6605 10.206 2.1027 10.206 0.63937zm99.174 25.408c0.27388-2.3434 1.1238-3.0706 5.3259-4.5565 2.75-0.97245 7.1375-1.7868 9.75-1.8097 2.6125-0.0229 4.75-0.49159 4.75-1.0416s1.3379-1 2.9732-1c3.7828 0 11.224-4.0846 12.514-6.869 0.54292-1.172 1.3304-2.131 1.75-2.131s0.76287-1.125 0.76287-2.5 0.45-2.5 1-2.5 1-1.3234 1-2.941 0.40668-3.1923 0.90374-3.4995c3.0241-1.869 1.0855-60.559-2.0002-60.559-1.2377 0-1.149-8.7302 0.0965-9.5 0.55-0.33992 1-3.9665 1-8.059 1e-5 -4.294-0.42292-7.441-0.99999-7.441-0.55 0-1-2.025-1-4.5s0.45-4.5 1-4.5c0.60282 0 1-4.147 1-10.441 0-5.882 0.43665-10.711 1-11.059 0.55-0.33992 1-3.7415 1-7.559 0-3.9606-0.42938-6.941-1-6.941-0.55445 0-1-2.647-1-5.941 0-3.2675-0.45-6.2191-1-6.559s-1-3.4473-1-6.9054c0-7.2871-1.7178-11.394-6.2998-15.063-1.7601-1.4091-3.7437-3.0053-4.408-3.547-0.66429-0.5417-1.5115-0.98492-1.8827-0.98492s-1.4027-0.78928-2.2922-1.754c-1.8358-1.9909-8.4448-5.246-10.651-5.246-0.80634 0-1.4661-0.45-1.4661-1s-2.475-1-5.5-1c-4.7138 0-5.5-0.2684-5.5-1.8776 0-1.0326 0.58519-2.3632 1.3004-2.9568 0.77536-0.64348 8.9517-1.2918 20.25-1.6055 10.422-0.28946 25.25-0.73458 32.95-0.98917 63.85-2.1111 116.07-2.7556 131-1.6167 8.8 0.67154 16.562 1.6866 17.25 2.2558 1.4894 1.233 1.6751 4.7899 0.25 4.7899-0.55 0-1 1.35-1 3s-0.36782 3-0.81738 3c-0.97787 0-4.1826 9.7912-4.1826 12.779 0 1.1567-0.45 2.3812-1 2.7211s-1 1.4863-1 2.5476c0 2.0779-1.8329 4.7173-6.3558 9.1522-2.5264 2.4773-3.5932 2.8002-9.25 2.8002-3.5168 0-6.3942-0.41968-6.3942-0.93261 0-0.51294-0.7875-1.1897-1.75-1.5038s-3.9406-2.5945-6.6181-5.0674-5.1801-4.4962-5.5614-4.4962-1.5657-0.7875-2.6319-1.75-3.2886-2.4243-4.9386-3.2484c-1.65-0.82412-3.225-1.754-3.5-2.0664-1.2684-1.4408-11.64-5.9352-13.696-5.9352-1.267 0-2.3037-0.45-2.3037-1s-2.475-1-5.5-1-5.5 0.45-5.5 1-1.318 1-2.9288 1c-1.9326 0-4.098 1.1055-6.366 3.25l-3.4372 3.25 0.40771 22c0.43433 23.437 1.4082 28.5 5.4817 28.5 1.0134 0 1.8425 0.4181 1.8425 0.9291 0 0.51101 2.5875 1.4692 5.75 2.1292 4.4034 0.91908 8.9237 0.93569 19.302 0.0709 24.16-2.0132 38.189-0.8285 41.469 3.5017 1.6019 2.1152 1.9039 5.5007 0.61725 6.919-0.47401 0.5225-1.3248 2.75-1.8906 4.95-1.2312 4.7868-4.5248 13.798-5.2996 14.5-0.30366 0.275-1.2952 2.0988-2.2034 4.0529-1.4884 3.2024-4.9664 7.2743-9.137 10.697-1.8133 1.4882-7.6075 1.6786-7.6075 0.24999 0-0.55-0.72794-1-1.6176-1-1.7045 0-9.3824-7.1081-9.3824-8.6862 0-1.3333-6.3761-7.3138-7.7976-7.3138-0.66131 0-1.2024-0.40114-1.2024-0.89142 0-1.6819-8.0422-4.1086-13.616-4.1086-7.414 0-10.651 1.996-12.301 7.5855-0.97665 3.3077-1.0224 5.1489-0.18733 7.5443 0.65894 1.8902 1.1046 10.976 1.1046 22.519 0 12.234 0.36779 19.351 1 19.351 0.61084 0 1 4.647 1 11.941 0 6.882-0.42367 12.203-1 12.559-0.55 0.33992-1 3.0665-1 6.059s0.45 5.441 1 5.441 1 0.83864 1 1.8636c0 2.2615 4.3918 6.8402 7.351 7.6639 1.1819 0.329 3.049 0.96386 4.149 1.4108s3.2587 1.3187 4.797 1.9372 4.3243 1.1245 6.191 1.1245c1.8667 0 3.672 0.45 4.012 1s2.579 1 4.9757 1c2.5952 0 4.5278 0.50558 4.7782 1.25 0.76988 2.2882-0.46697 4.766-2.6234 5.2556-3.7873 0.85987-69.686 2.0789-85.631 1.584-4.675-0.1451-20.572 0.0445-35.326 0.4214l-26.826 0.68521z"/></g></svg>
